<svg width="72" height="72" viewBox="0 0 72 72" fill="none" xmlns="http://www.w3.org/2000/svg">
<path d="M53.2542 21.1499C52.5342 21.0299 51.7842 20.9999 51.0042 20.9999H21.0042C20.1642 20.9999 19.3542 21.0599 18.5742 21.1799C18.9942 20.3399 19.5942 19.56 20.3142 18.84L30.0642 9.06C34.1742 4.98 40.8342 4.98 44.9442 9.06L50.1942 14.3699C52.1142 16.2599 53.1342 18.6599 53.2542 21.1499Z" stroke="#171717" stroke-width="4.5" stroke-linecap="round" stroke-linejoin="round"/>
<path d="M27 57C27 59.25 26.37 61.38 25.26 63.18C23.19 66.66 19.38 69 15 69C10.62 69 6.81 66.66 4.74 63.18C3.63 61.38 3 59.25 3 57C3 50.37 8.37 45 15 45C21.63 45 27 50.37 27 57Z" stroke="#171717" stroke-width="4.5" stroke-miterlimit="10" stroke-linecap="round" stroke-linejoin="round"/>
<path d="M19.4752 56.9385H10.5352" stroke="#171717" stroke-width="4.5" stroke-miterlimit="10" stroke-linecap="round" stroke-linejoin="round"/>
<path d="M15 52.5586V61.5286" stroke="#171717" stroke-width="4.5" stroke-miterlimit="10" stroke-linecap="round" stroke-linejoin="round"/>
<path d="M66 36V51C66 60 60 66 51 66H22.89C23.82 65.22 24.63 64.26 25.26 63.18C26.37 61.38 27 59.25 27 57C27 50.37 21.63 45 15 45C11.4 45 8.19 46.59 6 49.08V36C6 27.84 10.92 22.14 18.57 21.18C19.35 21.06 20.16 21 21 21H51C51.78 21 52.53 21.03 53.25 21.15C60.99 22.05 66 27.78 66 36Z" stroke="#171717" stroke-width="4.5" stroke-linecap="round" stroke-linejoin="round"/>
<path d="M66 37.5H57C53.7 37.5 51 40.2 51 43.5C51 46.8 53.7 49.5 57 49.5H66" stroke="#171717" stroke-width="4.5" stroke-linecap="round" stroke-linejoin="round"/>
</svg>
