<svg width="20" height="20" viewBox="0 0 20 20" fill="none" xmlns="http://www.w3.org/2000/svg">
<g clip-path="url(#clip0_651_1694)">
<g clip-path="url(#clip1_651_1694)">
<path d="M16.0097 1.56152H3.5182C2.44081 1.56152 1.56641 2.43593 1.56641 3.51332V16.0048C1.56641 17.0822 2.44081 17.9566 3.5182 17.9566H16.0097C17.0871 17.9566 17.9615 17.0822 17.9615 16.0048V3.51332C17.9615 2.43593 17.0871 1.56152 16.0097 1.56152ZM6.64107 7.80727V15.2241H4.29892V7.80727H6.64107ZM4.29892 5.64858C4.29892 5.10208 4.76735 4.68439 5.47 4.68439C6.17264 4.68439 6.61375 5.10208 6.64107 5.64858C6.64107 6.19508 6.20387 6.63619 5.47 6.63619C4.76735 6.63619 4.29892 6.19508 4.29892 5.64858ZM15.229 15.2241H12.8868C12.8868 15.2241 12.8868 11.6094 12.8868 11.3205C12.8868 10.5398 12.4965 9.75906 11.5206 9.74344H11.4893C10.5447 9.74344 10.1543 10.5476 10.1543 11.3205C10.1543 11.6757 10.1543 15.2241 10.1543 15.2241H7.81215V7.80727H10.1543V8.80658C10.1543 8.80658 10.9077 7.80727 12.4223 7.80727C13.972 7.80727 15.229 8.87294 15.229 11.0316V15.2241Z" fill="white"/>
</g>
</g>
<defs>
<clipPath id="clip0_651_1694">
<rect width="19.5179" height="19.5179" fill="white"/>
</clipPath>
<clipPath id="clip1_651_1694">
<rect width="19.5179" height="19.5179" fill="white"/>
</clipPath>
</defs>
</svg>
