<svg width="24" height="24" viewBox="0 0 24 24" fill="none" xmlns="http://www.w3.org/2000/svg">
<g clip-path="url(#clip0_651_1853)">
<path d="M17 14.5C17.0017 14.7199 16.9349 14.9348 16.8088 15.1149C16.6828 15.295 16.5037 15.4314 16.2966 15.5051L12.0471 17.0509L10.5025 21.301C10.4263 21.5062 10.2893 21.6831 10.1097 21.8081C9.93004 21.933 9.7165 22 9.49771 22C9.27893 22 9.06539 21.933 8.88578 21.8081C8.70616 21.6831 8.56908 21.5062 8.49295 21.301L6.94829 17.0502L2.6988 15.5051C2.49369 15.4289 2.31679 15.2918 2.19187 15.1121C2.06696 14.9325 2 14.7188 2 14.5C2 14.2812 2.06696 14.0675 2.19187 13.8879C2.31679 13.7082 2.49369 13.5711 2.6988 13.4949L6.94829 11.9498L8.49295 7.69901C8.56908 7.49384 8.70616 7.31689 8.88578 7.19193C9.06539 7.06698 9.27893 7 9.49771 7C9.7165 7 9.93004 7.06698 10.1097 7.19193C10.2893 7.31689 10.4263 7.49384 10.5025 7.69901L12.0478 11.9498L16.2966 13.4949C16.5037 13.5686 16.6828 13.705 16.8088 13.8851C16.9349 14.0652 17.0017 14.2801 17 14.5Z" fill="white"/>
<path d="M24 5C24.0011 5.14658 23.9566 5.28987 23.8725 5.40995C23.7885 5.53003 23.6692 5.62094 23.5311 5.67005L20.6981 6.70058L19.6683 9.53399C19.6176 9.67077 19.5262 9.78874 19.4064 9.87204C19.2867 9.95535 19.1443 10 18.9985 10C18.8526 10 18.7103 9.95535 18.5905 9.87204C18.4708 9.78874 18.3794 9.67077 18.3286 9.53399L17.2989 6.70014L14.4659 5.67005C14.3291 5.61928 14.2112 5.52786 14.1279 5.40808C14.0446 5.2883 14 5.1459 14 5C14 4.8541 14.0446 4.7117 14.1279 4.59192C14.2112 4.47214 14.3291 4.38072 14.4659 4.32995L17.2989 3.29986L18.3286 0.466007C18.3794 0.329226 18.4708 0.21126 18.5905 0.127956C18.7103 0.0446514 18.8526 0 18.9985 0C19.1443 0 19.2867 0.0446514 19.4064 0.127956C19.5262 0.21126 19.6176 0.329226 19.6683 0.466007L20.6985 3.29986L23.5311 4.32995C23.6692 4.37906 23.7885 4.46997 23.8725 4.59005C23.9566 4.71013 24.0011 4.85342 24 5Z" fill="white"/>
</g>
<defs>
<clipPath id="clip0_651_1853">
<rect width="24" height="24" fill="white"/>
</clipPath>
</defs>
</svg>
