<svg width="25" height="24" viewBox="0 0 25 24" fill="none" xmlns="http://www.w3.org/2000/svg">
<path d="M12.9258 16C11.0693 16 9.28879 15.2625 7.97603 13.9497C6.66328 12.637 5.92578 10.8565 5.92578 9C5.92578 7.14348 6.66328 5.36301 7.97603 4.05025C9.28879 2.7375 11.0693 2 12.9258 2C14.7823 2 16.5628 2.7375 17.8756 4.05025C19.1883 5.36301 19.9258 7.14348 19.9258 9C19.9258 10.8565 19.1883 12.637 17.8756 13.9497C16.5628 15.2625 14.7823 16 12.9258 16ZM12.9258 16V22M12.9258 19.5C12.9258 19.5 13.9258 18 15.9258 18C17.9258 18 18.9258 19.5 18.9258 19.5C18.9258 19.5 17.9258 21 15.9258 21C13.9258 21 12.9258 19.5 12.9258 19.5ZM12.9258 19.5C12.9258 19.5 11.9258 21 9.92578 21C7.92578 21 6.92578 19.5 6.92578 19.5C6.92578 19.5 7.92578 18 9.92578 18C11.9258 18 12.9258 19.5 12.9258 19.5Z" stroke="white" stroke-width="1.5" stroke-linecap="round" stroke-linejoin="round"/>
<path d="M11.3599 11.667V6.333M12.9219 6.333V5M12.9219 13V11.667M11.3599 9H14.4839M14.4839 9C15.0019 9 15.4219 9.448 15.4219 10V10.667C15.4219 11.219 15.0019 11.667 14.4849 11.667H10.4219M14.4839 9C15.0009 9 15.4219 8.552 15.4219 8V7.333C15.4219 6.781 15.0019 6.333 14.4849 6.333H10.4219" stroke="white" stroke-width="1.5" stroke-linecap="round" stroke-linejoin="round"/>
</svg>
