<svg width="72" height="72" viewBox="0 0 72 72" fill="none" xmlns="http://www.w3.org/2000/svg">
<path d="M53.37 68.2201H18.63C10.41 68.2201 3.75 61.5301 3.75 53.3101V31.0801C3.75 27.0001 6.27 21.8701 9.51 19.3501L25.68 6.75014C30.54 2.97014 38.31 2.79014 43.35 6.33014L61.89 19.3201C65.46 21.8101 68.25 27.1501 68.25 31.5001V53.3401C68.25 61.5301 61.59 68.2201 53.37 68.2201ZM28.44 10.2901L12.27 22.8901C10.14 24.5701 8.25 28.3801 8.25 31.0801V53.3101C8.25 59.0401 12.9 63.7201 18.63 63.7201H53.37C59.1 63.7201 63.75 59.0701 63.75 53.3401V31.5001C63.75 28.6201 61.68 24.6301 59.31 23.0101L40.77 10.0201C37.35 7.62014 31.71 7.74014 28.44 10.2901Z" fill="#171717"/>
<path d="M22.5003 51.7498C21.9303 51.7498 21.3603 51.5398 20.9103 51.0898C20.0403 50.2198 20.0403 48.7798 20.9103 47.9098L30.5103 38.3098C30.9903 37.8298 31.6203 37.5898 32.3103 37.6498C32.9703 37.7098 33.5703 38.0698 33.9603 38.6398L37.2303 43.5598L47.8803 32.9098C48.7503 32.0398 50.1903 32.0398 51.0603 32.9098C51.9303 33.7798 51.9303 35.2198 51.0603 36.0898L38.4603 48.6898C37.9803 49.1698 37.3503 49.4098 36.6603 49.3498C36.0003 49.2898 35.4003 48.9298 35.0103 48.3598L31.7403 43.4398L24.0903 51.0898C23.6403 51.5398 23.0703 51.7498 22.5003 51.7498Z" fill="#171717"/>
<path d="M49.5 42.75C48.27 42.75 47.25 41.73 47.25 40.5V36.75H43.5C42.27 36.75 41.25 35.73 41.25 34.5C41.25 33.27 42.27 32.25 43.5 32.25H49.5C50.73 32.25 51.75 33.27 51.75 34.5V40.5C51.75 41.73 50.73 42.75 49.5 42.75Z" fill="#171717"/>
</svg>
