<svg width="20" height="20" viewBox="0 0 20 20" fill="none" xmlns="http://www.w3.org/2000/svg">
<g clip-path="url(#clip0_651_1682)">
<g clip-path="url(#clip1_651_1682)">
<path d="M10.594 1.62695C11.5089 1.62939 11.9732 1.63427 12.3742 1.64566L12.5319 1.65135C12.7141 1.65786 12.8938 1.66599 13.111 1.67575C13.9763 1.71641 14.5667 1.85304 15.0847 2.05391C15.6214 2.26047 16.0736 2.54023 16.5257 2.99158C16.9393 3.39812 17.2593 3.88989 17.4635 4.43266C17.6643 4.9507 17.8009 5.54111 17.8416 6.40722C17.8513 6.62355 17.8595 6.80327 17.866 6.98626L17.8709 7.14402C17.8831 7.54414 17.888 8.00851 17.8896 8.92341L17.8904 9.53009V10.5954C17.8924 11.1887 17.8861 11.7818 17.8717 12.3748L17.8668 12.5326C17.8603 12.7155 17.8522 12.8953 17.8424 13.1116C17.8018 13.9778 17.6635 14.5674 17.4635 15.0862C17.2599 15.6292 16.9399 16.1212 16.5257 16.5273C16.1191 16.9406 15.6274 17.2606 15.0847 17.465C14.5667 17.6658 13.9763 17.8024 13.111 17.8431C12.918 17.8522 12.725 17.8604 12.5319 17.8675L12.3742 17.8724C11.9732 17.8838 11.5089 17.8895 10.594 17.8911L9.98728 17.8919H8.92274C8.32928 17.894 7.73583 17.8877 7.14254 17.8731L6.98477 17.8684C6.79172 17.861 6.59871 17.8527 6.40574 17.8431C5.54044 17.8024 4.95002 17.6658 4.43117 17.465C3.88848 17.2612 3.39691 16.9411 2.99091 16.5273C2.57701 16.1209 2.25673 15.6291 2.05242 15.0862C1.85155 14.5681 1.71493 13.9778 1.67426 13.1116C1.66521 12.9186 1.65708 12.7256 1.64987 12.5326L1.6458 12.3748C1.63081 11.7818 1.62404 11.1887 1.62547 10.5954V8.92341C1.6232 8.33023 1.62917 7.73705 1.64336 7.14402L1.64905 6.98626C1.65556 6.80327 1.66369 6.62355 1.67345 6.40722C1.71411 5.54111 1.85074 4.95151 2.05161 4.43266C2.25583 3.88933 2.57674 3.39742 2.99172 2.99158C3.39761 2.57803 3.88886 2.25802 4.43117 2.05391C4.95002 1.85304 5.53963 1.71641 6.40574 1.67575C6.62206 1.66599 6.8026 1.65786 6.98477 1.65135L7.14254 1.64647C7.73556 1.63202 8.32874 1.62578 8.92193 1.62777L10.594 1.62695ZM9.75794 5.69319C8.67951 5.69319 7.64526 6.1216 6.88268 6.88417C6.12011 7.64673 5.69171 8.681 5.69171 9.75943C5.69171 10.8379 6.12011 11.8721 6.88268 12.6347C7.64526 13.3972 8.67951 13.8257 9.75794 13.8257C10.8364 13.8257 11.8706 13.3972 12.6332 12.6347C13.3958 11.8721 13.8241 10.8379 13.8241 9.75943C13.8241 8.681 13.3958 7.64673 12.6332 6.88417C11.8706 6.1216 10.8364 5.69319 9.75794 5.69319ZM9.75794 7.31969C10.0783 7.31963 10.3956 7.38269 10.6916 7.50525C10.9876 7.62781 11.2567 7.80747 11.4832 8.03398C11.7098 8.2605 11.8896 8.52942 12.0122 8.82541C12.1349 9.12139 12.1981 9.43863 12.1981 9.75903C12.1982 10.0794 12.1351 10.3967 12.0125 10.6927C11.89 10.9887 11.7103 11.2578 11.4838 11.4843C11.2573 11.7109 10.9884 11.8907 10.6924 12.0133C10.3964 12.136 10.0792 12.1992 9.75876 12.1992C9.11171 12.1992 8.49114 11.9421 8.0336 11.4846C7.57607 11.027 7.31902 10.4065 7.31902 9.75943C7.31902 9.11237 7.57607 8.49182 8.0336 8.03427C8.49114 7.57673 9.11089 7.31969 9.75794 7.31969ZM14.0283 4.47332C13.7588 4.47332 13.5001 4.58042 13.3095 4.77107C13.1189 4.9617 13.0118 5.22027 13.0118 5.48988C13.0118 5.75949 13.1189 6.01806 13.3095 6.20869C13.5001 6.39934 13.7588 6.50644 14.0283 6.50644C14.2979 6.50644 14.5565 6.39934 14.7471 6.20869C14.9377 6.01806 15.0449 5.75949 15.0449 5.48988C15.0449 5.22027 14.9377 4.9617 14.7471 4.77107C14.5565 4.58042 14.2979 4.47332 14.0283 4.47332Z" fill="white"/>
</g>
</g>
<defs>
<clipPath id="clip0_651_1682">
<rect width="19.5179" height="19.5179" fill="white"/>
</clipPath>
<clipPath id="clip1_651_1682">
<rect width="19.5179" height="19.5179" fill="white"/>
</clipPath>
</defs>
</svg>
