<svg width="72" height="72" viewBox="0 0 72 72" fill="none" xmlns="http://www.w3.org/2000/svg">
<path d="M28.9492 41.4001L33.7792 45.1501C34.4092 45.7801 35.8192 46.0799 36.7492 46.0799H42.6892C44.5492 46.0799 46.5892 44.67 47.0692 42.81L50.8192 31.4399C51.5992 29.2499 50.1892 27.39 47.8492 27.39H41.6092C40.6792 27.39 39.8993 26.61 40.0493 25.53L40.8292 20.5499C41.1292 19.1399 40.1992 17.5799 38.7892 17.1299C37.5292 16.6499 35.9692 17.2798 35.3692 18.2098L28.9792 27.72" stroke="#171717" stroke-width="4.5" stroke-miterlimit="10"/>
<path d="M21 41.4004V26.1301C21 23.9401 21.93 23.1602 24.12 23.1602H25.68C27.87 23.1602 28.8 23.9401 28.8 26.1301V41.4004C28.8 43.5904 27.87 44.3704 25.68 44.3704H24.12C21.93 44.3704 21 43.5904 21 41.4004Z" stroke="#171717" stroke-width="4.5" stroke-linecap="round" stroke-linejoin="round"/>
<path d="M9 14.9099C9 9.98991 13.02 6 18 6H54C58.98 6 63 9.98991 63 14.9099V47.64C63 52.56 58.98 56.5499 54 56.5499H51.72C49.32 56.5499 47.04 57.4799 45.36 59.1599L40.23 64.2301C37.89 66.5401 34.08 66.5401 31.74 64.2301L26.61 59.1599C24.93 57.4799 22.62 56.5499 20.25 56.5499H18C13.02 56.5499 9 52.56 9 47.64V27.2098" stroke="#171717" stroke-width="4.5" stroke-miterlimit="10" stroke-linecap="round" stroke-linejoin="round"/>
</svg>
