<svg width="72" height="72" viewBox="0 0 72 72" fill="none" xmlns="http://www.w3.org/2000/svg">
<path d="M36 43.5C40.1421 43.5 43.5 40.1421 43.5 36C43.5 31.8579 40.1421 28.5 36 28.5C31.8579 28.5 28.5 31.8579 28.5 36C28.5 40.1421 31.8579 43.5 36 43.5Z" stroke="#171717" stroke-width="4.5" stroke-miterlimit="10" stroke-linecap="round" stroke-linejoin="round"/>
<path d="M55.5 28.5V43.5" stroke="#171717" stroke-width="4.5" stroke-miterlimit="10" stroke-linecap="round" stroke-linejoin="round"/>
<path d="M15 66C21.6274 66 27 60.6274 27 54C27 47.3726 21.6274 42 15 42C8.37258 42 3 47.3726 3 54C3 60.6274 8.37258 66 15 66Z" stroke="#171717" stroke-width="4.5" stroke-miterlimit="10" stroke-linecap="round" stroke-linejoin="round"/>
<path d="M15.75 50.25V53.04C15.75 54.09 15.21 55.0799 14.28 55.6199L12 57" stroke="#171717" stroke-width="4.5" stroke-miterlimit="10" stroke-linecap="round" stroke-linejoin="round"/>
<path d="M6 45.6V27C6 16.5 12 12 21 12H51C60 12 66 16.5 66 27V45C66 55.5 60 60 51 60H25.5" stroke="#171717" stroke-width="4.5" stroke-miterlimit="10" stroke-linecap="round" stroke-linejoin="round"/>
</svg>
