<svg width="99" height="39" viewBox="0 0 99 39" fill="none" xmlns="http://www.w3.org/2000/svg">
<g clip-path="url(#clip0_651_1341)">
<path d="M67.3391 21.3415L68.3123 21.6343C68.2477 21.9109 68.15 22.1386 68.0041 22.3175C67.8582 22.4965 67.6959 22.6429 67.485 22.7242C67.2741 22.8219 67.0146 22.8707 66.69 22.8707C66.3006 22.8707 65.9924 22.8219 65.7328 22.708C65.4893 22.5941 65.2784 22.3989 65.1001 22.106C64.9215 21.8295 64.8242 21.4554 64.8242 21.016C64.8242 20.4303 64.9865 19.9748 65.2947 19.6495C65.6029 19.3242 66.0573 19.1777 66.6251 19.1777C67.0792 19.1777 67.42 19.2754 67.6796 19.4542C67.9395 19.6332 68.134 19.9097 68.2477 20.3003L67.2741 20.5117C67.2418 20.3979 67.2091 20.3166 67.1605 20.2677C67.0955 20.1864 67.0306 20.1213 66.9333 20.0725C66.836 20.0236 66.7387 20.0074 66.6414 20.0074C66.3982 20.0074 66.2033 20.105 66.0733 20.3166C65.976 20.4629 65.9274 20.707 65.9274 21.016C65.9274 21.4066 65.9924 21.683 66.106 21.8295C66.2196 21.976 66.3978 22.0572 66.6087 22.0572C66.82 22.0572 66.9819 21.9922 67.0792 21.8783C67.2091 21.7319 67.2904 21.5692 67.3391 21.3415Z" fill="white"/>
<path d="M68.7031 21.0159C68.7031 20.4304 68.8654 19.9748 69.1899 19.6494C69.5144 19.3241 69.9686 19.1614 70.5526 19.1614C71.153 19.1614 71.6075 19.3241 71.9317 19.6331C72.2565 19.9585 72.4184 20.3978 72.4184 20.9835C72.4184 21.4065 72.3535 21.7481 72.2075 22.0084C72.0616 22.2687 71.867 22.4802 71.5911 22.6265C71.3316 22.773 70.9908 22.8543 70.6013 22.8543C70.1958 22.8543 69.8713 22.7892 69.5954 22.6591C69.3358 22.529 69.1249 22.3337 68.9464 22.041C68.7681 21.7481 68.7031 21.439 68.7031 21.0159ZM69.8063 21.0159C69.8063 21.3739 69.8713 21.6342 70.0012 21.7969C70.1308 21.9596 70.3094 22.041 70.5526 22.041C70.7962 22.041 70.9744 21.9596 71.1044 21.8132C71.2343 21.6504 71.2989 21.3739 71.2989 20.9835C71.2989 20.6418 71.2343 20.3978 71.088 20.2514C70.9584 20.0887 70.7635 20.0236 70.5366 20.0236C70.3094 20.0236 70.1308 20.1049 70.0012 20.2676C69.8713 20.3978 69.8063 20.6581 69.8063 21.0159Z" fill="white"/>
<path d="M72.9855 19.2268H74.4295L74.9812 21.4068L75.5329 19.2268H76.9766V22.8059H76.0684V20.0727L75.3707 22.8059H74.5594L73.8617 20.0727V22.8059H72.9531V19.2268H72.9855Z" fill="white"/>
<path d="M77.6914 19.2268H79.5246C79.9304 19.2268 80.2223 19.3245 80.4172 19.5197C80.6117 19.7149 80.709 19.9752 80.709 20.3331C80.709 20.6909 80.5954 20.9839 80.3845 21.179C80.1736 21.3905 79.8331 21.4882 79.395 21.4882H78.7946V22.8221H77.6914V19.2268ZM78.7946 20.756H79.0704C79.2814 20.756 79.4273 20.7235 79.5246 20.6422C79.6059 20.5609 79.6545 20.4795 79.6545 20.3656C79.6545 20.2517 79.6219 20.1541 79.5409 20.0727C79.4596 19.9915 79.33 19.959 79.1191 19.959H78.8109V20.756H78.7946Z" fill="white"/>
<path d="M81.293 19.2268H82.3961V21.9274H84.116V22.8059H81.293V19.2268Z" fill="white"/>
<path d="M84.668 19.2268H85.7711V22.8059H84.668V19.2268Z" fill="white"/>
<path d="M88.7542 22.2036H87.5051L87.3265 22.7893H86.207L87.5537 19.2102H88.7542L90.1009 22.7893H88.9491L88.7542 22.2036ZM88.5273 21.4389L88.1378 20.1538L87.7483 21.4389H88.5273Z" fill="white"/>
<path d="M90.4414 19.2268H91.4636L92.8103 21.2116V19.2268H93.8485V22.8059H92.8103L91.4799 20.8374V22.8059H90.4414V19.2268Z" fill="white"/>
<path d="M94.3359 19.2268H97.6947V20.1053H96.5752V22.8059H95.4718V20.1053H94.3523V19.2268H94.3359Z" fill="white"/>
<path d="M54.0673 24.6768L57.2635 23.6681L56.2253 21.3579C55.4627 22.3179 54.7004 23.5542 54.0673 24.6768ZM52.9805 14.1184L46.7177 0.127441L0.867188 2.73042L13.571 37.4802L38.0213 29.7526C36.4637 27.5075 35.8959 24.8395 37.6968 23.538C39.7089 22.0738 42.7428 23.7658 44.6736 26.1572C46.5391 23.0336 51.7797 15.7616 52.9805 14.1184Z" fill="#225E63"/>
<path d="M45.2885 10.238C47.203 10.238 48.7606 8.77386 48.7606 6.95178C48.7606 5.1297 47.203 3.66553 45.2885 3.66553C43.374 3.66553 41.8164 5.1297 41.8164 6.95178C41.8164 8.7576 43.374 10.238 45.2885 10.238ZM42.4491 11.6534H48.1279V26.5392H42.4491V11.6534Z" fill="#FEFEFE"/>
<path d="M39.6435 15.997C39.6922 16.0132 39.7248 15.997 39.7248 15.9481V12.1738C39.7248 12.125 39.6922 12.0762 39.6435 12.0437C39.6435 12.0437 38.8972 11.5556 36.6259 11.4254C36.5123 11.3604 34.5165 11.3441 33.9811 11.4254C25.7066 12.0925 25.3984 18.0956 25.3984 18.3558V19.82C25.3984 19.999 25.3984 26.1323 33.9811 26.6692C34.8247 26.7342 36.4636 26.6692 36.6259 26.6692C38.6053 26.6692 39.968 26.0672 39.968 26.0672C40.0167 26.051 40.049 26.0021 40.049 25.9533V22.4231C40.049 22.3743 40.0167 22.358 39.9844 22.3905C39.9844 22.3905 39.3676 22.8786 36.6745 23.1551C35.9119 23.2365 35.5387 23.2039 35.2628 23.1551C31.434 22.5043 31.2555 19.7062 31.2555 19.7062C31.2555 19.6574 31.2393 19.576 31.2393 19.5435V18.4698C31.2393 18.4209 31.2393 18.3396 31.2555 18.307C31.2555 18.307 31.515 15.2974 35.2628 14.9721H36.6745C38.3131 15.1835 39.6435 15.997 39.6435 15.997Z" fill="#FEFEFE"/>
<path d="M9.62891 26.4907C9.62891 26.5395 9.66136 26.5721 9.71004 26.5721H15.2426C15.2913 26.5721 15.3237 26.5395 15.3237 26.4907V22.1634C15.3237 22.1145 15.3562 22.082 15.4049 22.082C15.4049 22.082 24.2472 22.7165 24.2472 16.7784C24.2472 12.0768 18.6984 11.5724 16.8813 11.6538C16.8488 11.6538 9.71004 11.6538 9.71004 11.6538C9.66136 11.6538 9.62891 11.6863 9.62891 11.7351V26.4907ZM15.2264 18.7794V14.8912H16.5892C16.5892 14.8912 18.5524 14.9726 18.7146 16.3229C18.7471 16.4204 18.7471 17.0875 18.7146 17.12C18.4551 18.6981 16.7515 18.7794 16.7515 18.7794H15.2264Z" fill="#FEFEFE"/>
<path d="M45.4538 33.7222C45.9079 33.7222 46.2651 33.7222 46.8491 33.4618C48.8609 32.4043 55.6588 15.7615 62.8302 10.6369C62.8788 10.6044 62.9275 10.5556 62.9598 10.5067C63.0084 10.4417 63.0084 10.3766 63.0084 10.3766C63.0084 10.3766 63.0084 10.035 61.9539 10.035C55.5778 9.856 48.9419 23.2776 45.4538 28.5812C45.4048 28.6463 45.1779 28.5812 45.1779 28.5812C45.1779 28.5812 42.8416 25.8155 40.8136 24.758C40.7649 24.7419 40.5377 24.6605 40.2941 24.6768C40.1319 24.6768 39.191 24.8719 38.7528 25.3274C38.2337 25.8806 38.2501 26.1897 38.2501 26.8566C38.2501 26.9055 38.2824 27.1333 38.3473 27.2472C38.8504 28.1257 41.1054 31.2492 42.9712 32.9736C43.2471 33.1854 43.6852 33.7222 45.4538 33.7222Z" fill="#2BBC5D"/>
<path d="M64.7109 5.60986H70.0165C71.071 5.60986 71.9147 5.75631 72.5474 6.03286C73.1964 6.32568 73.7318 6.73242 74.1373 7.25301C74.5591 7.78986 74.8676 8.40809 75.0462 9.10762C75.2408 9.80717 75.3381 10.5555 75.3381 11.3527C75.3381 12.5891 75.1922 13.549 74.9163 14.2322C74.6404 14.9156 74.2509 15.485 73.7481 15.9568C73.245 16.4123 72.7096 16.7213 72.1419 16.884C71.3632 17.0955 70.6492 17.1931 70.0165 17.1931H64.7109V5.60986ZM68.2803 8.22912V14.5576H69.1566C69.9029 14.5576 70.4383 14.4762 70.7465 14.3136C71.0547 14.1509 71.3146 13.8581 71.4928 13.4513C71.6714 13.0446 71.7687 12.3613 71.7687 11.434C71.7687 10.1976 71.5738 9.36791 71.1683 8.91241C70.7628 8.45688 70.1138 8.22912 69.1729 8.22912H68.2803Z" fill="white"/>
<path d="M76.3281 13.3698L79.7352 13.1583C79.8162 13.7114 79.9625 14.1345 80.1897 14.4273C80.5629 14.8991 81.082 15.1269 81.7633 15.1269C82.2664 15.1269 82.6719 15.013 82.9478 14.7689C83.2237 14.5249 83.3696 14.2483 83.3696 13.9392C83.3696 13.6463 83.2396 13.3698 82.9801 13.1258C82.7205 12.8818 82.1042 12.6702 81.1469 12.4588C79.573 12.1008 78.4698 11.6291 77.7885 11.0434C77.1068 10.4577 76.7823 9.70939 76.7823 8.79833C76.7823 8.19639 76.9608 7.64328 77.3017 7.10639C77.6422 6.56954 78.1613 6.16284 78.859 5.85372C79.557 5.5446 80.4979 5.39819 81.6984 5.39819C83.175 5.39819 84.3105 5.67478 85.0731 6.2279C85.8518 6.78104 86.3062 7.65954 86.4522 8.86342L83.0774 9.05865C82.9801 8.53804 82.8018 8.16386 82.5096 7.91983C82.2178 7.6758 81.8283 7.56192 81.3252 7.56192C80.9034 7.56192 80.5952 7.64328 80.3843 7.82221C80.1734 8.00119 80.0761 8.21269 80.0761 8.47298C80.0761 8.65192 80.157 8.83089 80.3356 8.9773C80.4979 9.12371 80.9034 9.27012 81.5361 9.40027C83.0937 9.74191 84.2132 10.0836 84.8946 10.4252C85.5759 10.7669 86.0627 11.2061 86.3712 11.7104C86.6794 12.2147 86.8253 12.8004 86.8253 13.4349C86.8253 14.1832 86.6144 14.8665 86.2089 15.4848C85.8031 16.1193 85.2191 16.591 84.4891 16.9164C83.7591 17.2418 82.8178 17.4044 81.6984 17.4044C79.7352 17.4044 78.3725 17.0303 77.6099 16.2657C76.8635 15.501 76.4417 14.5412 76.3281 13.3698Z" fill="white"/>
<path d="M87.7344 13.3698L91.1415 13.1583C91.2225 13.7114 91.3684 14.1345 91.5956 14.4273C91.9688 14.8991 92.4882 15.1269 93.1692 15.1269C93.6723 15.1269 94.0781 15.013 94.3537 14.7689C94.6296 14.5249 94.7755 14.2483 94.7755 13.9392C94.7755 13.6463 94.6459 13.3698 94.3863 13.1258C94.1268 12.8818 93.5101 12.6702 92.5529 12.4588C90.9792 12.1008 89.8761 11.6291 89.1944 11.0434C88.5293 10.4577 88.1885 9.70939 88.1885 8.79833C88.1885 8.19639 88.3671 7.64328 88.7076 7.10639C89.0484 6.56954 89.5675 6.16284 90.2652 5.85372C90.9629 5.5446 91.9038 5.39819 93.1046 5.39819C94.5809 5.39819 95.7167 5.67478 96.4794 6.2279C97.258 6.78104 97.7125 7.65954 97.8584 8.86342L94.4836 9.05865C94.3863 8.53804 94.2078 8.16386 93.9159 7.91983C93.6237 7.6758 93.2342 7.56192 92.7314 7.56192C92.3096 7.56192 92.0014 7.64328 91.7902 7.82221C91.5793 8.00119 91.482 8.21269 91.482 8.47298C91.482 8.65192 91.5633 8.83089 91.7416 8.9773C91.9038 9.12371 92.3096 9.27012 92.9423 9.40027C94.5 9.74191 95.6194 10.0836 96.3008 10.4252C96.9822 10.7669 97.4689 11.2061 97.7771 11.7104C98.0853 12.2147 98.2316 12.8004 98.2316 13.4349C98.2316 14.1832 98.0207 14.8665 97.6149 15.4848C97.2094 16.1193 96.6253 16.591 95.895 16.9164C95.165 17.2418 94.2241 17.4044 93.1046 17.4044C91.1415 17.4044 89.7785 17.0303 89.0158 16.2657C88.2535 15.501 87.8317 14.5412 87.7344 13.3698Z" fill="white"/>
</g>
<defs>
<clipPath id="clip0_651_1341">
<rect width="98.5714" height="38.5714" fill="white"/>
</clipPath>
</defs>
</svg>
