<svg width="61" height="62" viewBox="0 0 61 62" fill="none" xmlns="http://www.w3.org/2000/svg">
<g clip-path="url(#clip0_687_1224)">
<path d="M60.9263 18.7715H47.9389L41.1348 25.5756L28.1437 12.5869H15.1562L34.6381 32.0687L15.1562 51.5541H28.1437L41.1348 38.5655L47.5847 45.0166H60.5734L47.6291 32.0687L60.9263 18.7715Z" fill="#A8D15A"/>
<path d="M21.6523 5.44189V12.5869H28.1455L30.3111 14.7524V5.44189H21.6523Z" fill="white"/>
<path d="M30.0408 30.549L27.2318 27.74L21.6498 22.158V27.854C21.6474 28.0353 21.6378 28.2129 21.621 28.3894C21.6126 28.465 21.5982 28.5359 21.5886 28.6115C21.5706 28.7483 21.5538 28.8864 21.5274 29.0208C21.5093 29.1085 21.4829 29.1937 21.4625 29.2813C21.4337 29.3978 21.4073 29.5154 21.3725 29.6294C21.3437 29.7231 21.3077 29.8131 21.2765 29.9067C21.2416 30.0088 21.2068 30.1108 21.1648 30.2105C21.124 30.3065 21.0796 30.4037 21.0328 30.4974C20.992 30.585 20.9511 30.6762 20.9043 30.7639C20.8515 30.8635 20.7927 30.9595 20.7375 31.0556C20.6906 31.1312 20.6474 31.2104 20.6006 31.2836C20.5358 31.3833 20.4662 31.4793 20.3965 31.5753C20.3497 31.6402 20.3005 31.7074 20.2501 31.771C20.1709 31.8707 20.0892 31.9667 20.004 32.0603C19.9548 32.1131 19.908 32.1684 19.8575 32.2212C19.7639 32.3172 19.6679 32.4109 19.5706 32.5021C19.5238 32.5465 19.477 32.5873 19.4302 32.6305C19.3222 32.7242 19.2141 32.8142 19.1001 32.8994C19.0557 32.9318 19.0124 32.9667 18.968 32.9991C18.8456 33.0867 18.7219 33.1719 18.5935 33.25C18.5551 33.2728 18.5143 33.2968 18.4735 33.3232C18.3366 33.4048 18.1986 33.4804 18.0557 33.5537C18.0209 33.5717 17.9885 33.5861 17.9537 33.6029C17.8012 33.6761 17.65 33.7433 17.4915 33.8046C17.4651 33.8166 17.4363 33.825 17.4099 33.8334C17.243 33.8946 17.0761 33.9498 16.9045 34.0002C16.8841 34.0062 16.8637 34.0086 16.8433 34.0146C16.662 34.0638 16.4807 34.1047 16.2935 34.1371C16.2815 34.1371 16.2707 34.1395 16.2611 34.1431C16.0654 34.1779 15.8661 34.2019 15.668 34.2187C15.5984 34.2247 15.5252 34.2307 15.4544 34.2331C15.416 34.2331 15.3751 34.2355 15.3343 34.2391C15.2731 34.2391 15.2119 34.2451 15.1507 34.2451C11.565 34.2451 8.65632 31.3377 8.65632 27.7508H0C0 36.1214 6.78364 42.9038 15.1531 42.9038C15.428 42.9038 15.6993 42.8954 15.9681 42.881H15.9742C16.1902 42.869 16.4063 42.8522 16.62 42.8318C16.6428 42.8318 16.6644 42.8258 16.6872 42.8258C16.8769 42.8054 17.0665 42.785 17.2538 42.7586C17.2946 42.7526 17.333 42.7466 17.3739 42.7406C17.5407 42.7178 17.704 42.6878 17.8672 42.6589C17.9261 42.6469 17.9873 42.6385 18.0461 42.6265C18.1829 42.6001 18.3174 42.5713 18.4518 42.5413C18.5335 42.5233 18.6187 42.5065 18.7003 42.4861C18.794 42.4633 18.8876 42.4393 18.9836 42.4129C19.1037 42.3804 19.2237 42.3516 19.3402 42.3168C19.3522 42.3144 19.363 42.3108 19.375 42.3048C24.8021 40.7322 28.9724 36.2138 30.0396 30.591H30.0372C30.0372 30.591 30.0396 30.5706 30.0432 30.5622L30.0408 30.5478V30.549Z" fill="white"/>
<path d="M36.5982 13.031C37.0568 13.522 37.6354 13.7681 38.3341 13.7681C39.0327 13.7681 39.6113 13.522 40.0699 13.031C40.5285 12.5196 40.7601 11.8882 40.7601 11.1367C40.7601 10.3853 40.5297 9.74905 40.0699 9.26047C39.6197 8.76109 39.0411 8.509 38.3341 8.509C37.627 8.509 37.0448 8.75989 36.5982 9.26047C36.1397 9.75145 35.908 10.3769 35.908 11.1367C35.908 11.8966 36.1361 12.5196 36.5982 13.031ZM32.4688 11.1379C32.4688 9.56298 33.021 8.22089 34.1253 7.1165C35.2418 6.0001 36.6451 5.44189 38.3341 5.44189C40.0231 5.44189 41.412 6.0001 42.5284 7.1165C43.6328 8.22089 44.185 9.56298 44.185 11.1379C44.185 12.7129 43.6328 14.0694 42.5284 15.1738C41.424 16.2782 40.0243 16.8304 38.3341 16.8304C36.6439 16.8304 35.2418 16.2722 34.1253 15.1558C33.021 14.0514 32.4688 12.7093 32.4688 11.1343V11.1367V11.1379Z" fill="white"/>
<path d="M48.973 5.44189H45.6094V16.6143H48.973V5.44189Z" fill="white"/>
<path d="M53.9041 16.6143H50.6797V5.44189H53.5439L57.7382 10.8366V5.44189H60.9302V16.6143H58.1596L53.9041 11.1872V16.6143Z" fill="white"/>
<path d="M15.1562 53.7089V62.0002H60.9263V53.7089H15.1562Z" fill="#A8D15A"/>
<path d="M19.6914 60.2742C19.2473 60.2742 18.8379 60.1685 18.4694 59.9609C18.1009 59.7544 17.8176 59.4603 17.6063 59.0917C17.3938 58.7232 17.293 58.3139 17.293 57.8601C17.293 57.1734 17.5199 56.5924 17.9796 56.1279C18.4394 55.6633 19.0048 55.4304 19.6866 55.4304C20.252 55.4304 20.7418 55.6021 21.1512 55.9406C21.5605 56.2791 21.8234 56.7281 21.9338 57.2791H20.9243C20.8643 57.0978 20.773 56.9406 20.6518 56.8049C20.5305 56.6681 20.3889 56.5672 20.222 56.4916C20.0552 56.416 19.8787 56.38 19.6818 56.38C19.2881 56.38 18.9592 56.5216 18.6975 56.7989C18.4346 57.0822 18.3037 57.4303 18.3037 57.8445C18.3037 58.2586 18.4346 58.6116 18.6975 58.8901C18.9604 59.1674 19.2881 59.309 19.6818 59.309C19.9843 59.309 20.252 59.2226 20.4693 59.0509C20.6914 58.8793 20.8426 58.6416 20.9291 58.3487H21.9446C21.839 58.9249 21.5809 59.3894 21.1668 59.7376C20.7526 60.0905 20.258 60.2634 19.6866 60.2634L19.6914 60.273V60.2742Z" fill="#060F10"/>
<path d="M26.7756 56.7135L26.1441 58.441H27.4118L26.7756 56.7135ZM28.078 60.274L27.7395 59.3545H25.8104L25.4767 60.274H24.3711L26.2654 55.4363H27.2557L29.21 60.274H28.0792H28.078Z" fill="#060F10"/>
<path d="M33.8655 57.7939C34.072 57.7939 34.2389 57.7279 34.3649 57.6019C34.491 57.471 34.557 57.309 34.557 57.1073C34.557 56.9056 34.491 56.7387 34.3649 56.6079C34.2389 56.4771 34.072 56.411 33.8655 56.411H33.0985V57.7999H33.8655V57.7951V57.7939ZM33.9051 55.4363C34.3949 55.4363 34.7995 55.5923 35.1272 55.9104C35.4549 56.2238 35.617 56.6223 35.617 57.1025C35.617 57.5826 35.4549 57.9764 35.1272 58.2897C34.7995 58.6078 34.3901 58.7639 33.9051 58.7639H33.0973V60.2788H32.0469V55.4411H33.9051V55.4363Z" fill="#060F10"/>
<path d="M39.6051 55.4363H38.5547V60.274H39.6051V55.4363Z" fill="#060F10"/>
<path d="M46.2613 55.4363V56.411H44.9132V60.274H43.8628V56.411H42.5195V55.4363H46.2613Z" fill="#060F10"/>
<path d="M50.6133 56.7135L49.9819 58.441H51.2495L50.6133 56.7135ZM51.9218 60.274L51.5833 59.3545H49.6542L49.3204 60.274H48.2148L50.1091 55.4363H51.0995L53.0538 60.274H51.923H51.9218Z" fill="#060F10"/>
<path d="M56.9293 59.2993H58.7816V60.274H55.8789V55.4363H56.9293V59.2993Z" fill="#060F10"/>
</g>
<path d="M26.1836 15.5939C26.1866 15.6367 26.1912 15.6809 26.1973 15.7221C26.3011 16.4133 26.8473 17.0466 27.5081 17.274C27.9262 17.4174 28.3321 17.3213 28.651 17.0161C28.7975 16.8757 28.9302 16.7002 28.9912 16.5034C28.9973 16.4866 29.0019 16.4698 29.005 16.4515C29.0553 16.244 29.0218 16.0303 28.9821 15.8228C28.9729 15.7755 28.9623 15.7282 28.9531 15.6809C28.9378 15.6061 29.0477 15.5741 29.0675 15.6489C29.1118 15.8137 29.2018 15.9571 29.2934 16.1005C29.272 15.9952 29.2476 15.89 29.2201 15.7847C29.1545 15.5405 29.0874 15.2872 28.9455 15.0766C28.9272 15.0492 28.9699 15.0156 28.9912 15.0416C29.1728 15.246 29.2781 15.4932 29.3529 15.7511C29.3849 15.6168 29.4185 15.4841 29.4383 15.3483C29.4414 15.3223 29.4444 15.2979 29.4444 15.2735C29.4536 15.095 29.4109 14.9225 29.3498 14.7532C29.2354 14.4297 29.0599 14.0619 28.77 13.859C28.7654 13.8559 28.7608 13.8529 28.7563 13.8498C28.7028 13.8147 28.6479 13.7827 28.5899 13.7552C28.3 13.6209 27.9552 13.5965 27.6301 13.6545C27.5599 13.6667 27.4897 13.6835 27.4226 13.7033C27.2761 13.7461 27.1373 13.8056 27.0137 13.8803C26.8321 13.9887 26.6764 14.1352 26.5513 14.3061C26.4369 14.4632 26.3468 14.6402 26.2843 14.8264C26.2004 15.0751 26.1653 15.3391 26.1851 15.5939H26.1836Z" fill="#F4EDED"/>
<path d="M30.702 10.128C30.7142 9.89762 30.7447 9.66569 30.7691 9.4368C30.7706 9.42154 30.7767 9.40781 30.7859 9.39713C30.7859 9.39713 30.7966 9.38492 30.8027 9.38034C30.8454 9.34677 30.9156 9.3483 30.9248 9.41544C30.9705 9.74809 31.0499 10.067 31.146 10.3844C31.1582 10.1921 31.1872 9.99986 31.233 9.81217C31.2482 9.74961 31.3505 9.76182 31.3474 9.82743C31.3276 10.1814 31.3276 10.54 31.4451 10.8757C31.6251 10.8284 31.793 10.7445 31.9563 10.6575C32.1363 10.5614 32.3194 10.4668 32.4949 10.3646C32.8779 10.1433 33.2396 9.88389 33.5966 9.62449C33.9522 9.36508 34.3077 9.1072 34.6831 8.87984C35.0523 8.65706 35.4277 8.44801 35.7787 8.19776C36.0625 7.99634 36.3341 7.77814 36.6072 7.56146C36.975 7.27153 37.3473 6.98466 37.7517 6.74662C38.4551 6.3331 39.1601 5.93941 39.7552 5.37178C39.8788 5.25276 39.9932 5.1261 40.126 5.01624C40.2496 4.91248 40.3778 4.81177 40.4922 4.6958C40.4937 4.69427 40.4968 4.69122 40.4983 4.68969C40.538 4.65002 40.5792 4.60424 40.6143 4.55541C40.6646 4.48675 40.7013 4.40893 40.7058 4.325C40.7135 4.17241 40.6311 4.01829 40.5563 3.89164C40.1992 3.29501 39.5217 2.8998 38.8473 2.78078C38.8427 2.78078 38.8396 2.78078 38.8366 2.77926C38.7756 2.76857 38.713 2.76094 38.652 2.75637C38.3361 2.73195 38.0233 2.78383 37.7273 2.90743C37.3717 3.05544 37.0528 3.28128 36.7431 3.50711C36.035 4.02135 35.295 4.48522 34.5747 4.98114C34.2253 5.22071 33.9354 5.52284 33.6256 5.80819C33.4288 5.98977 33.2243 6.16525 33.0183 6.33615C32.8779 6.45212 32.736 6.56656 32.5956 6.68101C32.2691 6.94499 31.9929 7.25628 31.7075 7.56451C31.6801 7.5935 31.6541 7.62249 31.6267 7.65149C31.3688 7.9231 31.0957 8.1825 30.8866 8.49379C30.8866 8.49379 30.8851 8.49684 30.8836 8.49837C30.8301 8.57924 30.7783 8.66011 30.7478 8.75319C30.7218 8.83254 30.702 8.91341 30.6715 8.99276C30.6745 9.05227 30.5753 9.19723 30.5677 9.25827C30.5555 9.35135 30.5387 9.44443 30.5356 9.53598C30.528 9.7374 30.6104 9.94188 30.7065 10.1296L30.702 10.128Z" fill="#F4EDED"/>
<path d="M26.908 7.26236C26.9553 7.69877 27.0087 8.13518 27.0667 8.57007C27.1262 9.00495 27.1521 9.44442 27.1842 9.88083C27.2162 10.3233 27.2651 10.7613 27.3292 11.2007C27.3917 11.6265 27.4451 12.0522 27.4955 12.4794C27.5336 12.7999 27.5779 13.1203 27.6099 13.4423C27.8083 13.4103 28.0112 13.4087 28.2081 13.4377C28.2951 13.4515 28.382 13.4698 28.466 13.4957C28.5178 13.511 28.5667 13.5293 28.617 13.5506C28.617 13.543 28.6201 13.5354 28.6201 13.5277C28.6369 13.4118 28.6552 13.2943 28.675 13.1783C28.7116 12.9586 28.7498 12.7373 28.7833 12.5176C28.8505 12.0736 28.9298 11.631 29.0122 11.1885C29.0946 10.7414 29.174 10.2943 29.2304 9.84268C29.2869 9.39101 29.3266 8.93781 29.3769 8.48614C29.3968 8.30761 29.4166 8.12755 29.441 7.9475C29.441 7.9475 29.441 7.9475 29.4395 7.9475C29.2945 7.82237 29.1602 7.68657 29.0382 7.54008C28.9466 7.43021 28.8612 7.31577 28.7849 7.1937C28.6063 6.91293 28.4171 6.60927 28.2783 6.28731C28.1394 5.96687 28.0524 5.62964 28.0769 5.28478C28.0799 5.24359 28.1394 5.24359 28.1409 5.28478C28.1669 5.77613 28.3744 6.24153 28.6277 6.66878C28.7223 6.82901 28.8245 6.98312 28.9237 7.13266C29.0275 7.28678 29.148 7.43021 29.2762 7.56449C29.3388 7.62858 29.4029 7.69114 29.4685 7.75218C29.5005 7.7827 29.5341 7.81169 29.5677 7.84068C29.5753 7.84679 29.5814 7.85289 29.589 7.85899C29.7019 7.95665 29.821 8.04973 29.9415 8.13976C29.9995 8.18401 30.0621 8.22521 30.1231 8.26794C30.0972 8.16723 30.0758 8.06652 30.0605 7.96428C30.0544 7.93071 30.0499 7.89562 30.0453 7.86052C30.0102 7.59501 30.0041 7.32645 30.0132 7.05789C30.0209 6.83358 30.0392 6.6108 30.0743 6.38954C30.0941 6.26442 30.12 6.14082 30.1536 6.01875C30.1597 5.99891 30.1918 6.00196 30.1902 6.02333C30.1689 6.42311 30.1399 6.82443 30.1551 7.22422C30.1628 7.42258 30.1811 7.62095 30.2177 7.8178C30.2238 7.84984 30.2299 7.88188 30.236 7.9124C30.3062 8.24047 30.4115 8.55633 30.5534 8.85694C30.5763 8.78522 30.5931 8.71045 30.6205 8.64179C30.6572 8.54871 30.7136 8.46478 30.7701 8.38238C30.7899 8.35186 30.8113 8.32287 30.8342 8.29388C30.9379 8.15349 31.0524 8.02227 31.1714 7.89562C31.4201 7.62858 31.6658 7.3585 31.9191 7.09451C31.9633 7.04874 32.0076 7.00296 32.0518 6.95718C32.3723 6.62759 32.7446 6.35597 33.0925 6.05842C33.4297 5.77002 33.7395 5.45416 34.0721 5.15966C34.4094 4.86363 34.7954 4.62559 35.1693 4.3784C35.5614 4.11899 35.9551 3.86264 36.3381 3.5895C36.5548 3.43538 36.7715 3.27058 36.9973 3.11952C37.4292 2.83112 37.89 2.59308 38.424 2.5763C38.4286 2.5763 38.4347 2.5763 38.4393 2.5763C38.3615 2.51373 38.2837 2.4527 38.2074 2.39166C37.8823 2.13378 37.5634 1.86827 37.2293 1.61955C36.5884 1.14194 35.8727 0.809293 35.1052 0.589562C34.3514 0.374409 33.5594 0.234025 32.7767 0.200455C32.0168 0.168411 31.2492 0.270647 30.5473 0.571251C30.1918 0.723842 29.8637 0.931365 29.5371 1.13584C29.2381 1.32352 28.9436 1.52342 28.6887 1.77062C28.4187 2.03307 28.2203 2.34894 28.0265 2.66938C27.8236 3.00813 27.6389 3.35756 27.4879 3.72225C27.3322 4.09763 27.2101 4.48826 27.0728 4.86974C27.0102 5.04217 26.9492 5.21765 26.8958 5.39618C26.8317 5.61438 26.7814 5.83564 26.763 6.06147C26.7295 6.46279 26.8668 6.86258 26.9095 7.25931L26.908 7.26236Z" fill="#D82E2E"/>
<path d="M26.1204 16.1233C26.2578 16.494 26.5141 16.8145 26.8224 17.0602C27.1214 17.2982 27.4861 17.4859 27.8752 17.495C28.2872 17.5027 28.6535 17.2692 28.8991 16.9503C29.0319 16.7794 29.1311 16.5856 29.1555 16.3674C29.1646 16.2789 29.1631 16.1904 29.1555 16.1034C29.2364 16.2407 29.3203 16.375 29.3813 16.523C29.4149 16.6054 29.5339 16.5764 29.5156 16.4864C29.482 16.3201 29.453 16.1477 29.4149 15.9783C29.4164 15.9737 29.4195 15.9707 29.421 15.9661C29.4988 15.7174 29.6194 15.4763 29.6239 15.2108C29.6285 14.9712 29.5461 14.7301 29.4546 14.5104C29.3142 14.1716 29.1219 13.8512 28.8167 13.6528C28.8228 13.6009 28.8259 13.5475 28.8335 13.4956C28.8503 13.3614 28.8701 13.2271 28.89 13.0943C28.9266 12.8471 28.9586 12.5999 28.9953 12.3527C29.125 11.4692 29.3203 10.5964 29.4088 9.7068C29.4546 9.2536 29.4897 8.80041 29.537 8.34874C29.5476 8.24956 29.5583 8.1519 29.569 8.05424C29.6483 8.11833 29.7292 8.18089 29.8101 8.24193C29.9367 8.33653 30.0649 8.44792 30.2023 8.52727C30.2267 8.60052 30.2541 8.67376 30.2847 8.747C30.3411 8.88281 30.4006 9.01556 30.4784 9.13458C30.4708 9.18494 30.4601 9.23529 30.451 9.28412C30.4327 9.39704 30.4083 9.51454 30.4174 9.6305C30.4388 9.90975 30.5822 10.1844 30.7134 10.4255C30.747 10.4881 30.8447 10.4575 30.8447 10.3904C30.8447 10.2256 30.8675 10.0639 30.8889 9.90059C30.9698 10.1966 31.0613 10.4911 31.1575 10.7826C31.1773 10.8421 31.2765 10.8344 31.2704 10.7673C31.2658 10.7124 31.2643 10.6574 31.2628 10.6025C31.2811 10.7276 31.3101 10.8497 31.3513 10.9687C31.3635 11.0023 31.3925 11.0191 31.4276 11.013C31.6244 10.9779 31.8075 10.8955 31.9845 10.8055C32.3736 10.6086 32.7536 10.3996 33.1183 10.1585C33.5013 9.90517 33.8721 9.63356 34.2535 9.3772C34.6365 9.11932 35.044 8.90112 35.4361 8.65697C35.8039 8.42809 36.1472 8.16716 36.486 7.8986C36.8201 7.63461 37.1512 7.36606 37.5053 7.12649C37.8562 6.88997 38.2331 6.69618 38.5932 6.47492C38.9442 6.25824 39.286 6.02325 39.6019 5.75775C39.7636 5.62194 39.9177 5.4785 40.0627 5.32591C40.1756 5.20842 40.3038 5.10618 40.4289 5.00089C40.6517 4.81168 40.9233 4.56906 40.8851 4.2471C40.8485 3.93428 40.6273 3.63521 40.4167 3.41242C39.9772 2.95007 39.315 2.63421 38.668 2.58538C38.4254 2.34581 38.1522 2.13218 37.8959 1.91093C37.5755 1.63474 37.2428 1.36923 36.8842 1.14492C36.1976 0.716141 35.4193 0.443003 34.632 0.265997C33.0862 -0.0803844 31.4169 -0.197879 29.9856 0.600171C29.6575 0.783281 29.331 0.984701 29.0227 1.20138C28.7236 1.41196 28.4475 1.65152 28.2232 1.94145C27.979 2.25731 27.7776 2.6159 27.5929 2.96838C27.4053 3.32697 27.2435 3.70082 27.1169 4.08535C26.859 4.86356 26.4714 5.67992 26.5904 6.51918C26.6194 6.72365 26.6667 6.92354 26.6957 7.12801C26.7278 7.35537 26.743 7.58426 26.769 7.81162C26.8178 8.26176 26.891 8.70733 26.9277 9.159C26.9658 9.60914 26.9856 10.0608 27.0284 10.511C27.0726 10.9626 27.152 11.4082 27.2115 11.8583C27.2695 12.3008 27.3198 12.7449 27.3702 13.1889C27.3824 13.2896 27.3946 13.3919 27.4053 13.4926C27.1275 13.5674 26.8697 13.7032 26.6667 13.8908C26.0655 14.4478 25.8366 15.3557 26.122 16.1263L26.1204 16.1233ZM30.5364 9.53437C30.5395 9.44282 30.5563 9.34974 30.5685 9.25666C30.5761 9.19562 30.6753 9.05066 30.6722 8.99115C30.7028 8.91333 30.7226 8.83245 30.7485 8.75158C30.779 8.65697 30.8325 8.57458 30.8874 8.49218C31.1193 8.14732 31.4291 7.86655 31.7099 7.5629C31.9952 7.25619 32.2714 6.94338 32.5979 6.6794C32.9474 6.3971 33.2983 6.11176 33.6279 5.80658C33.9377 5.5197 34.2276 5.2191 34.577 4.97953C35.2973 4.48361 36.0373 4.01974 36.7454 3.5055C37.0551 3.27967 37.374 3.05383 37.7296 2.90582C38.0256 2.78375 38.3384 2.73034 38.6543 2.75476C38.7153 2.75933 38.7779 2.76696 38.8389 2.77764C38.8435 2.77764 38.8465 2.77764 38.8496 2.77917C39.524 2.89819 40.2031 3.2934 40.5586 3.89003C40.6334 4.01668 40.7158 4.1708 40.7081 4.32339C40.702 4.46683 40.5952 4.59043 40.4991 4.68808C40.3831 4.80558 40.2534 4.90781 40.1268 5.01463C39.9955 5.12602 39.8811 5.25267 39.756 5.37017C39.1609 5.9378 38.4559 6.33149 37.7525 6.74501C37.046 7.16006 36.4432 7.72159 35.7779 8.19615C35.427 8.4464 35.0516 8.65545 34.6823 8.87823C34.3054 9.10559 33.9514 9.365 33.5959 9.62288C33.2388 9.88228 32.8772 10.1417 32.4942 10.3629C32.3172 10.4652 32.1356 10.5598 31.9555 10.6559C31.7923 10.7429 31.6244 10.8253 31.4443 10.8741C31.3269 10.5369 31.3268 10.1798 31.3467 9.82582C31.3497 9.76021 31.2475 9.748 31.2322 9.81056C31.188 9.99825 31.1575 10.189 31.1453 10.3828C31.0507 10.0654 30.9713 9.74495 30.924 9.41383C30.9149 9.34669 30.8447 9.34516 30.8019 9.37873C30.7958 9.38331 30.7897 9.38941 30.7852 9.39552C30.776 9.40772 30.7699 9.41993 30.7684 9.43519C30.7455 9.66407 30.715 9.89601 30.7012 10.1264C30.6036 9.93874 30.5227 9.73579 30.5303 9.53285L30.5364 9.53437ZM28.7847 12.5175C28.7511 12.7388 28.713 12.9585 28.6763 13.1782C28.6565 13.2942 28.6382 13.4102 28.6214 13.5277C28.6214 13.5353 28.6199 13.5429 28.6184 13.5506C28.3101 13.4209 27.9546 13.3888 27.6128 13.4438C27.5792 13.1218 27.535 12.8013 27.4983 12.4809C27.4495 12.0536 27.3961 11.6279 27.332 11.2022C27.2664 10.7627 27.2191 10.3248 27.1871 9.88228C27.1565 9.44434 27.1291 9.00641 27.0696 8.57152C27.0116 8.13511 26.9566 7.70023 26.9109 7.26382C26.8681 6.86708 26.7308 6.46882 26.7644 6.06598C26.798 5.65704 26.9368 5.25877 27.0741 4.87577C27.2115 4.49277 27.3351 4.10366 27.4892 3.72829C27.6403 3.36359 27.8249 3.01416 28.0278 2.67541C28.2201 2.35497 28.4185 2.03758 28.6901 1.77665C28.9449 1.52945 29.2379 1.32956 29.5385 1.14187C29.865 0.935871 30.1931 0.729874 30.5486 0.577283C31.2521 0.276679 32.0181 0.174443 32.778 0.206487C33.5608 0.240057 34.3527 0.38044 35.1065 0.595594C35.8741 0.815325 36.5912 1.14797 37.2306 1.62558C37.5632 1.87431 37.8822 2.13981 38.2087 2.39769C38.285 2.45873 38.3628 2.51977 38.4406 2.58233C38.4361 2.58233 38.43 2.58233 38.4254 2.58233C37.6121 2.60674 36.9697 3.14539 36.3395 3.59553C35.9565 3.86867 35.5628 4.12502 35.1706 4.38443C34.7968 4.63163 34.4107 4.86814 34.0735 5.16569C33.7408 5.45867 33.4311 5.77606 33.0939 6.06445C32.7459 6.36201 32.3736 6.63514 32.0532 6.96321C31.7541 7.26992 31.4657 7.58884 31.1727 7.90318C31.0293 8.05729 30.8904 8.21751 30.7714 8.38994C30.715 8.47234 30.6585 8.55626 30.6219 8.64934C30.5944 8.71954 30.5776 8.79278 30.5547 8.8645C30.4128 8.56389 30.3091 8.24803 30.2374 7.91996C30.1031 7.29739 30.158 6.65956 30.1916 6.02936C30.1916 6.008 30.1595 6.00494 30.155 6.02478C30.0619 6.36506 30.0268 6.71144 30.0146 7.06392C30.0039 7.36606 30.0146 7.66971 30.0619 7.96879C30.0787 8.07102 30.1 8.17174 30.1244 8.27245C30.0634 8.22972 30.0008 8.18699 29.9429 8.14427C29.8223 8.05424 29.7048 7.96116 29.5904 7.8635C29.5827 7.8574 29.5766 7.85129 29.569 7.84519C29.5354 7.8162 29.5019 7.78568 29.4698 7.75669C29.2669 7.57053 29.0792 7.36453 28.9251 7.13717C28.5558 6.59089 28.1758 5.96527 28.1423 5.29082C28.1408 5.24962 28.0812 5.24962 28.0782 5.29082C28.0294 5.98053 28.4291 6.6382 28.7862 7.19973C28.9663 7.48202 29.1891 7.7338 29.4408 7.95353C29.4408 7.95353 29.4408 7.95353 29.4424 7.95353C29.4179 8.13359 29.3996 8.31365 29.3783 8.49218C29.3264 8.94385 29.2882 9.39704 29.2318 9.84871C29.1753 10.3004 29.096 10.7475 29.0136 11.1946C28.9327 11.6371 28.8518 12.0781 28.7847 12.5236V12.5175ZM27.0162 13.8802C27.1398 13.8069 27.2786 13.7474 27.4251 13.7032C27.4938 13.6833 27.5624 13.6665 27.6326 13.6543C27.9592 13.5963 28.3025 13.6208 28.5924 13.755C28.6504 13.7825 28.7069 13.813 28.7587 13.8496C28.7633 13.8527 28.7679 13.8557 28.7725 13.8588C29.0624 14.0617 29.2379 14.4295 29.3523 14.753C29.421 14.9468 29.4668 15.1421 29.4393 15.3481C29.421 15.4839 29.3874 15.6182 29.3538 15.7509C29.2806 15.4915 29.1738 15.2459 28.9922 15.0414C28.9693 15.017 28.9266 15.049 28.9464 15.0765C29.0883 15.2871 29.157 15.5404 29.2211 15.7845C29.2486 15.8883 29.273 15.9935 29.2943 16.1004C29.2028 15.9569 29.1143 15.8135 29.0685 15.6487C29.0487 15.5739 28.9388 15.606 28.9541 15.6807C29.0044 15.931 29.067 16.1965 29.0059 16.4513C28.9541 16.668 28.8106 16.8633 28.6519 17.0144C28.333 17.3196 27.9271 17.4142 27.509 17.2723C26.8483 17.0464 26.302 16.4116 26.1983 15.7204C26.096 15.0368 26.4043 14.2403 27.0116 13.8786L27.0162 13.8802Z" fill="#464646"/>
<path opacity="0.27" d="M30.702 10.1278C30.7142 9.89738 30.7447 9.66544 30.7691 9.43656C30.7706 9.4213 30.7767 9.40757 30.7859 9.39688C30.7859 9.39688 30.7966 9.38468 30.8027 9.3801C30.8454 9.34653 30.9156 9.34805 30.9248 9.41519C30.9705 9.74784 31.0499 10.0668 31.146 10.3841C31.1582 10.1919 31.1872 9.99962 31.233 9.81193C31.2482 9.74937 31.3505 9.76158 31.3474 9.82719C31.3276 10.1812 31.3276 10.5398 31.4451 10.8755C31.6251 10.8282 31.793 10.7443 31.9563 10.6573C32.1363 10.5612 32.3194 10.4665 32.4949 10.3643C32.8779 10.1431 33.2396 9.88365 33.5966 9.62424C33.9522 9.36484 34.3077 9.10696 34.6831 8.8796C35.0523 8.65682 35.4277 8.44777 35.7787 8.19752C36.444 7.72296 37.0467 7.16143 37.7532 6.74638C38.4566 6.33286 39.1616 5.93917 39.7567 5.37153C39.8803 5.25251 39.9948 5.12586 40.1275 5.016C40.2511 4.91224 40.3793 4.81153 40.4937 4.69556C40.1138 4.8161 39.7125 5.10145 39.4302 5.24946C38.2781 5.85525 37.1642 6.5297 36.061 7.21941C35.4323 7.6131 34.8067 8.01136 34.1795 8.40504C33.8408 8.61714 33.4761 8.83687 33.0763 8.8323C32.6445 8.82772 32.2553 8.55611 31.9807 8.22346C31.8372 8.04951 31.7182 7.85419 31.6267 7.64819C31.3688 7.9198 31.0957 8.17921 30.8866 8.49049C30.8317 8.57289 30.7783 8.65529 30.7478 8.7499C30.7218 8.82925 30.702 8.91012 30.6715 8.98947C30.6745 9.04898 30.5753 9.19394 30.5677 9.25497C30.5555 9.34805 30.5387 9.44113 30.5356 9.53269C30.528 9.73411 30.6104 9.93858 30.7065 10.1263L30.702 10.1278Z" fill="#4F4B4B"/>
<path opacity="0.27" d="M30.6987 10.1281C30.7109 9.89769 30.7415 9.66575 30.7659 9.43687C30.7674 9.42161 30.7735 9.40787 30.7827 9.39719C30.7827 9.39719 30.7933 9.38499 30.7994 9.38041C30.8422 9.34684 30.9124 9.34836 30.9215 9.4155C30.9673 9.74815 31.0466 10.0671 31.1428 10.3845C31.155 10.1922 31.184 9.99993 31.2298 9.81224C31.245 9.74968 31.3472 9.76189 31.3442 9.8275C31.3244 10.1815 31.3244 10.5401 31.4419 10.8758C31.6219 10.8285 31.7898 10.7446 31.953 10.6576C32.1331 10.5615 32.3162 10.4669 32.4917 10.3646C32.8747 10.1434 33.2363 9.88396 33.5934 9.62455C33.9489 9.36515 34.3045 9.10727 34.6798 8.87991C35.0491 8.65713 35.4245 8.44808 35.7754 8.19783C36.0593 7.99641 36.3309 7.7782 36.604 7.56152C35.9952 7.90943 35.397 8.27412 34.7866 8.6205C34.1885 8.96078 33.5797 9.28428 32.9479 9.55741C32.658 9.68254 32.3437 9.79851 32.0339 9.73594C31.8218 9.69322 31.6341 9.56809 31.4739 9.42161C31.2008 9.17136 30.9948 8.84939 30.8757 8.49691C30.8223 8.57778 30.7705 8.65865 30.7399 8.75173C30.714 8.83108 30.6942 8.91195 30.6636 8.9913C30.6667 9.05081 30.5675 9.19577 30.5599 9.25681C30.5477 9.34989 30.5309 9.44297 30.5278 9.53452C30.5202 9.73594 30.6026 9.94042 30.6987 10.1281Z" fill="#4F4B4B"/>
<path opacity="0.29" d="M30.2936 7.42243C30.2341 7.36445 30.1898 7.29883 30.1562 7.22711C30.1654 7.45753 30.1883 7.68794 30.2371 7.9153C30.3073 8.24337 30.4126 8.55923 30.5545 8.85984C30.5774 8.78812 30.5942 8.71335 30.6217 8.64468C30.6583 8.5516 30.7147 8.46768 30.7712 8.38528C30.8902 8.21133 31.0291 8.05263 31.1725 7.89851C31.4212 7.63148 31.6669 7.36139 31.9202 7.09741C31.8424 7.15997 31.7615 7.22101 31.6791 7.279C31.4731 7.42396 31.2488 7.55519 31.0001 7.60249C30.7514 7.64979 30.4736 7.60096 30.2936 7.42396V7.42243Z" fill="#560000"/>
<path opacity="0.29" d="M29.4658 7.75052C29.4978 7.78103 29.5314 7.81003 29.565 7.83902C29.5726 7.84512 29.5787 7.85123 29.5863 7.85733C29.6992 7.95499 29.8183 8.04807 29.9388 8.1381C29.9968 8.18235 30.0594 8.22355 30.1204 8.26627C30.0945 8.16556 30.0731 8.06485 30.0578 7.96262C30.0105 7.66354 29.9998 7.35988 30.0105 7.05775C30.0182 6.83344 30.0365 6.61066 30.0716 6.3894C29.9022 6.69916 29.6474 6.97993 29.3056 6.99977C29.0431 7.01503 28.7944 6.86701 28.625 6.66407C28.7196 6.82429 28.8218 6.97841 28.921 7.12794C29.0751 7.35683 29.2628 7.5613 29.4658 7.74746V7.75052Z" fill="#560000"/>
<path opacity="0.29" d="M28.2109 13.4373C28.3528 13.4587 28.4902 13.4953 28.6184 13.5487C28.6184 13.5411 28.6214 13.5335 28.6214 13.5258C28.6382 13.4099 28.6565 13.2924 28.6763 13.1764C28.713 12.9567 28.7511 12.7354 28.7847 12.5157C28.8518 12.0716 28.9312 11.6291 29.0136 11.1866C29.096 10.7395 29.1753 10.2924 29.2318 9.84077C29.2882 9.3891 29.3279 8.93591 29.3783 8.48424C29.3981 8.3057 29.4179 8.12565 29.4423 7.94559C29.4423 7.94559 29.4423 7.94559 29.4408 7.94559C29.1875 7.72586 28.9663 7.47408 28.7862 7.19179C28.6077 6.91102 28.4185 6.60737 28.2796 6.2854C28.4764 8.66429 28.4536 11.0615 28.2125 13.4373H28.2109Z" fill="#560000"/>
<path opacity="0.27" d="M26.1985 15.7235C26.3023 16.4148 26.8486 17.048 27.5093 17.2754C27.9274 17.4188 28.3333 17.3227 28.6522 17.0175C28.8109 16.8649 28.9543 16.6711 29.0062 16.4544C29.0566 16.2469 29.023 16.0333 28.9833 15.8258C28.8368 16.1203 28.611 16.3766 28.3348 16.5567C28.228 16.6269 28.1136 16.6849 27.99 16.7199C27.848 16.7596 27.6955 16.7657 27.5505 16.7428C27.1354 16.6787 26.7753 16.3919 26.5632 16.0302C26.3527 15.6716 26.2779 15.2459 26.284 14.8293C26.1863 15.1208 26.1558 15.4336 26.1985 15.7251V15.7235Z" fill="#4F4B4B"/>
<path opacity="0.27" d="M26.1836 15.5941C26.1866 15.6368 26.1912 15.681 26.1973 15.7222C26.3011 16.4135 26.8474 17.0467 27.5081 17.2741C27.9262 17.4175 28.3321 17.3214 28.651 17.0162C28.7975 16.8758 28.9302 16.7003 28.9913 16.5035C28.7654 16.8621 28.3534 17.1032 27.9277 17.1367C27.795 17.1474 27.6591 17.1398 27.5294 17.1047C27.2441 17.0284 27.0091 16.8285 26.8123 16.6088C26.5452 16.3097 26.3331 15.9649 26.1836 15.5925V15.5941Z" fill="#4F4B4B"/>
<path opacity="0.63" d="M26.5508 14.3075C26.7186 14.2022 26.8987 14.1137 27.0864 14.0526C27.4068 13.9458 27.7578 13.9168 28.0843 14.0023C28.2766 14.0526 28.4566 14.1396 28.626 14.2434C28.7649 14.3273 28.8976 14.4219 29.0136 14.5364C29.1586 14.6767 29.2745 14.8461 29.3569 15.0292C29.392 15.1086 29.4225 15.1925 29.4439 15.2764C29.4531 15.0979 29.4103 14.9255 29.3493 14.7561C29.2349 14.4326 29.0594 14.0648 28.7695 13.8619C28.7649 13.8589 28.7603 13.8558 28.7557 13.8527C28.7023 13.8177 28.6474 13.7856 28.5894 13.7581C28.2995 13.6239 27.9546 13.5994 27.6296 13.6574C27.5594 13.6696 27.4892 13.6864 27.4221 13.7063C27.2756 13.749 27.1367 13.8085 27.0131 13.8833C26.8315 13.9916 26.6759 14.1381 26.5508 14.309V14.3075Z" fill="white"/>
<path d="M29.0261 14.5864C29.0017 14.6138 28.9574 14.6184 28.9223 14.6062C28.8872 14.594 28.8582 14.5681 28.8292 14.5437C28.666 14.4017 28.4905 14.2675 28.2891 14.1866C28.2234 14.1606 28.1517 14.1378 28.1014 14.0874C28.0831 14.0691 28.0678 14.0416 28.077 14.0187C28.0876 13.9897 28.1258 13.9836 28.1563 13.9836C28.3333 13.9836 28.4996 14.0554 28.6553 14.1332C28.7789 14.1957 28.8948 14.2522 28.9711 14.3712C29.0062 14.4262 29.0825 14.5208 29.0261 14.5864Z" fill="white"/>
<path d="M26.9867 14.0279C26.9546 14.0447 26.918 14.0767 26.9333 14.1103C26.947 14.1408 26.9897 14.1393 27.0218 14.1317C27.2415 14.0874 27.4597 14.0447 27.6794 14.0004C27.6977 13.9974 27.7206 13.9897 27.7237 13.9714C27.7267 13.9562 27.716 13.9424 27.7054 13.9318C27.6138 13.8494 27.4856 13.8753 27.3758 13.8951C27.24 13.918 27.1087 13.9638 26.9867 14.0279Z" fill="white"/>
<path opacity="0.29" d="M30.2148 7.8208C30.2209 7.85284 30.2271 7.88489 30.2332 7.91541C30.3033 8.24348 30.4086 8.55934 30.5505 8.85995C30.5734 8.78823 30.5902 8.71346 30.6177 8.64479C30.6543 8.55171 30.7108 8.46779 30.7672 8.38539C30.7871 8.35487 30.8084 8.32588 30.8313 8.29688C30.8176 8.28926 30.8023 8.28163 30.7855 8.274C30.5277 8.15803 30.3506 8.04358 30.2148 7.8208Z" fill="#560000"/>
<path opacity="0.29" d="M29.4681 7.75055C29.5001 7.78107 29.5337 7.81006 29.5673 7.83906C29.5749 7.84516 29.581 7.85126 29.5886 7.85737C29.7015 7.95503 29.8206 8.04811 29.9411 8.13813C29.9991 8.18239 30.0617 8.22359 30.1227 8.26631C30.0968 8.1656 30.0754 8.06489 30.0601 7.96265C30.054 7.92908 30.0495 7.89399 30.0449 7.85889C30.0388 7.86194 30.0342 7.86347 30.0281 7.865C29.9503 7.88789 29.8648 7.865 29.7885 7.83906C29.6054 7.77344 29.4315 7.67884 29.2773 7.55981C29.3399 7.6239 29.404 7.68646 29.4696 7.7475L29.4681 7.75055Z" fill="#560000"/>
<path opacity="0.29" d="M28.4688 13.4954C28.5206 13.5107 28.5695 13.529 28.6198 13.5504C28.6198 13.5427 28.6229 13.5351 28.6229 13.5275C28.6397 13.4115 28.658 13.294 28.6778 13.178C28.7144 12.9583 28.7526 12.737 28.7861 12.5173C28.8533 12.0733 28.9326 11.6308 29.015 11.1882C29.0974 10.7412 29.1768 10.2941 29.2332 9.84239C29.2897 9.39072 29.3294 8.93753 29.3797 8.48586C29.3996 8.30733 29.4194 8.12727 29.4438 7.94721C29.4438 7.94721 29.4438 7.94721 29.4423 7.94721C29.2973 7.82209 29.163 7.68628 29.041 7.53979C29.0532 7.68323 29.0486 7.82819 29.041 7.97163C29.0257 8.22798 29.0028 8.48281 28.9799 8.73763C28.8792 9.83019 28.7785 10.9243 28.6763 12.0168C28.6305 12.5127 28.5847 13.0117 28.4718 13.4969L28.4688 13.4954Z" fill="#560000"/>
<path opacity="0.63" d="M33.0156 6.33585C33.8183 5.82009 34.6194 5.3028 35.422 4.78705C35.9728 4.43304 36.5267 4.0775 37.1341 3.83335C37.7414 3.58921 38.4112 3.46103 39.0537 3.58158C39.3298 3.63346 39.5969 3.73264 39.841 3.8715C40.0608 3.9951 40.2622 4.15074 40.4377 4.3308C40.485 4.37963 40.546 4.47576 40.6147 4.55663C40.665 4.48797 40.7016 4.41015 40.7062 4.32622C40.7138 4.17363 40.6314 4.01951 40.5567 3.89286C40.1996 3.29623 39.5221 2.90102 38.8477 2.782C38.8431 2.782 38.84 2.782 38.837 2.78048C38.7759 2.76979 38.7134 2.76217 38.6523 2.75759C38.3365 2.73317 38.0237 2.78505 37.7276 2.90865C37.3721 3.05667 37.0532 3.2825 36.7434 3.50833C36.0354 4.02257 35.2953 4.48644 34.5751 4.98236C34.2257 5.22193 33.9357 5.52406 33.626 5.80941C33.4291 5.99099 33.2247 6.16647 33.0187 6.33737L33.0156 6.33585Z" fill="white"/>
<path opacity="0.23" d="M26.8945 5.40039C27.2974 4.39024 27.7811 3.41365 28.5593 2.66901C29.7373 1.54289 31.4799 1.11563 33.0928 1.34147C33.604 1.41319 34.106 1.54594 34.5897 1.72752C35.4427 2.04949 36.2377 2.521 36.9518 3.08558C36.9671 3.09779 36.9808 3.11 36.9961 3.12221C37.4279 2.83381 37.8887 2.59577 38.4228 2.57898C38.4274 2.57898 38.4335 2.57898 38.438 2.57898C38.3602 2.51642 38.2824 2.45538 38.2061 2.39435C37.8811 2.13647 37.5622 1.87096 37.228 1.62224C36.5871 1.14463 35.8715 0.811978 35.1039 0.592247C34.3501 0.377094 33.5582 0.23671 32.7754 0.20314C32.0155 0.171096 31.248 0.273332 30.546 0.573936C30.1905 0.726527 29.8624 0.934051 29.5359 1.13852C29.2368 1.32621 28.9423 1.5261 28.6875 1.7733C28.4174 2.03576 28.219 2.35162 28.0252 2.67206C27.8223 3.01081 27.6376 3.36025 27.4866 3.72494C27.3309 4.10031 27.2089 4.49095 27.0715 4.87242C27.009 5.04485 26.9479 5.22033 26.8945 5.39886V5.40039Z" fill="white"/>
<defs>
<clipPath id="clip0_687_1224">
<rect width="60.9303" height="60" fill="white" transform="translate(0 2)"/>
</clipPath>
</defs>
</svg>
