<svg width="137" height="39" viewBox="0 0 137 39" fill="none" xmlns="http://www.w3.org/2000/svg">
<path d="M50.2054 23.04C52.1405 23.0384 54.0114 22.3444 55.4805 21.0831C56.9496 19.8217 57.9201 18.0762 58.2169 16.1615C58.8429 12.1701 55.7283 8.68584 51.3153 8.68584H44.2025C44.0691 8.68411 43.9396 8.73075 43.8378 8.81714C43.736 8.90354 43.6689 9.02386 43.6488 9.15593L40.4788 29.3031C40.4674 29.3767 40.4719 29.4519 40.4922 29.5236C40.5125 29.5952 40.548 29.6616 40.5964 29.7183C40.6447 29.7749 40.7047 29.8204 40.7722 29.8517C40.8397 29.8829 40.9132 29.8992 40.9876 29.8993H44.7514C44.8846 29.9007 45.0137 29.8538 45.1151 29.7675C45.2166 29.6811 45.2835 29.561 45.3036 29.4292L46.2361 23.5109C46.256 23.3789 46.323 23.2584 46.4246 23.1719C46.5262 23.0854 46.6556 23.0385 46.789 23.04H50.2054ZM53.3553 15.9799C53.1225 17.4552 51.9838 18.5424 49.8041 18.5424H47.0161L47.8612 13.1746H50.5986C52.8537 13.1794 53.5864 14.5109 53.3553 15.9839V15.9799ZM74.5242 15.0316H70.9505C70.8172 15.0301 70.6877 15.0768 70.586 15.1631C70.4843 15.2495 70.4171 15.3697 70.3968 15.5017L70.2812 16.2442C70.2812 16.2442 67.5069 13.2107 62.5971 15.2599C59.7802 16.4339 58.4288 18.8599 57.8542 20.6357C57.8542 20.6357 56.0269 26.0341 60.1574 29.0066C60.1574 29.0066 63.9863 31.8641 68.299 28.8298L68.2244 29.3031C68.2128 29.3767 68.2172 29.452 68.2375 29.5237C68.2577 29.5954 68.2932 29.6619 68.3416 29.7186C68.3899 29.7752 68.45 29.8207 68.5176 29.8519C68.5852 29.8831 68.6587 29.8993 68.7332 29.8993H72.3052C72.4386 29.901 72.5681 29.8544 72.6699 29.768C72.7717 29.6816 72.8388 29.5613 72.8589 29.4292L75.0322 15.6279C75.0436 15.5543 75.039 15.4791 75.0187 15.4074C74.9985 15.3357 74.9629 15.2693 74.9146 15.2127C74.8663 15.1561 74.8063 15.1106 74.7388 15.0793C74.6712 15.0481 74.5985 15.0318 74.5242 15.0316ZM69.2701 22.6591C69.1302 23.6208 68.6469 24.499 67.9095 25.1308C67.1722 25.7627 66.2311 26.1053 65.2607 26.0952C64.8806 26.0995 64.5023 26.044 64.1395 25.9305C62.5987 25.4355 61.7199 23.9521 61.9727 22.3449C62.1127 21.3807 62.5981 20.5003 63.3384 19.8679C64.0788 19.2356 65.0236 18.8944 65.9966 18.9081C66.377 18.9041 66.7558 18.9603 67.1185 19.0736C68.6537 19.567 69.5269 21.0504 69.2741 22.6591H69.2701Z" fill="#003087"/>
<path d="M101.656 23.04C103.592 23.0395 105.464 22.346 106.935 21.0846C108.405 19.8233 109.377 18.0772 109.675 16.1614C110.3 12.1701 107.186 8.68582 102.771 8.68582H95.6611C95.5279 8.68446 95.3987 8.73124 95.2971 8.81759C95.1955 8.90394 95.1285 9.02405 95.1082 9.15591L91.9286 29.3087C91.9104 29.4197 91.9293 29.5336 91.9822 29.6328C92.0352 29.732 92.1193 29.811 92.2215 29.8575C92.2891 29.8891 92.3628 29.9056 92.4374 29.9057H96.202C96.3354 29.9071 96.4647 29.8602 96.5663 29.7737C96.6679 29.6871 96.7349 29.5668 96.755 29.4348L97.6883 23.5165C97.7081 23.3844 97.775 23.2639 97.8766 23.1773C97.9783 23.0907 98.1078 23.044 98.2412 23.0456L101.656 23.04ZM104.806 15.9798C104.573 17.4552 103.434 18.5424 101.254 18.5424H98.4668L99.3126 13.1746H102.05C104.303 13.1794 105.038 14.5109 104.806 15.9839V15.9798ZM125.974 15.0316H122.404C122.271 15.0303 122.142 15.077 122.04 15.1634C121.939 15.2497 121.872 15.3699 121.851 15.5017L121.734 16.2442C121.734 16.2442 118.961 13.2107 114.051 15.2598C111.235 16.4339 109.883 18.8598 109.307 20.6357C109.307 20.6357 107.481 26.0341 111.61 29.0065C111.61 29.0065 115.44 31.864 119.753 28.8297L119.678 29.3031C119.66 29.4141 119.679 29.528 119.732 29.6272C119.785 29.7264 119.869 29.8053 119.971 29.8519C120.039 29.884 120.112 29.9001 120.187 29.9001H123.759C123.893 29.9021 124.022 29.8555 124.124 29.7688C124.226 29.6822 124.292 29.5615 124.312 29.4292L126.486 15.6279C126.497 15.554 126.492 15.4787 126.471 15.407C126.451 15.3352 126.415 15.2687 126.367 15.2116C126.319 15.1545 126.259 15.1087 126.191 15.0776C126.123 15.0464 126.049 15.0308 125.974 15.0316ZM120.721 22.6591C120.582 23.6215 120.1 24.5006 119.362 25.1328C118.624 25.765 117.682 26.107 116.711 26.0952C116.331 26.0997 115.952 26.0441 115.589 25.9305C114.047 25.4355 113.167 23.9521 113.42 22.3449C113.56 21.3832 114.043 20.5048 114.78 19.8727C115.518 19.2407 116.459 18.8979 117.43 18.9081C117.811 18.904 118.19 18.9595 118.552 19.0736C120.104 19.567 120.979 21.0504 120.725 22.6591H120.721Z" fill="#0070E0"/>
<path d="M87.6378 15.3731L83.3307 22.6526L81.1454 15.4269C81.1111 15.3123 81.0407 15.2118 80.9446 15.1405C80.8486 15.0693 80.7321 15.031 80.6125 15.0316H76.7267C76.6597 15.0303 76.5934 15.0453 76.5335 15.0753C76.4736 15.1053 76.4219 15.1494 76.3827 15.2039C76.3436 15.2583 76.3182 15.3215 76.3088 15.3879C76.2994 15.4543 76.3062 15.522 76.3287 15.5852L80.245 27.7561L76.7035 33.492C76.6634 33.5552 76.6412 33.6279 76.639 33.7027C76.6369 33.7774 76.6549 33.8514 76.6913 33.9167C76.7276 33.982 76.7808 34.0363 76.8454 34.0739C76.91 34.1114 76.9835 34.1308 77.0582 34.1301H81.2449C81.3647 34.1307 81.4825 34.1 81.5868 34.0411C81.691 33.9822 81.7782 33.8971 81.8396 33.7942L92.7796 15.672C92.819 15.6088 92.8406 15.5361 92.8422 15.4615C92.8438 15.387 92.8253 15.3134 92.7887 15.2485C92.7521 15.1837 92.6986 15.1299 92.634 15.0928C92.5694 15.0558 92.4961 15.0368 92.4216 15.038H88.2365C88.1162 15.0366 87.9976 15.0668 87.8925 15.1256C87.7875 15.1844 87.6997 15.2697 87.6378 15.3731Z" fill="#003087"/>
<path d="M129.995 9.15005L126.815 29.3028C126.797 29.4138 126.816 29.5277 126.869 29.6269C126.922 29.7261 127.006 29.8051 127.108 29.8517C127.176 29.8838 127.25 29.8999 127.324 29.8999H131.087C131.221 29.9015 131.35 29.8548 131.452 29.7682C131.553 29.6816 131.62 29.5611 131.64 29.429L134.82 9.27621C134.832 9.2026 134.828 9.12727 134.808 9.05551C134.788 8.98375 134.752 8.91729 134.703 8.86076C134.655 8.80421 134.595 8.75878 134.527 8.72758C134.46 8.69638 134.386 8.68014 134.312 8.67996H130.548C130.415 8.6786 130.285 8.72539 130.184 8.81173C130.082 8.89808 130.015 9.01819 129.995 9.15005Z" fill="#0070E0"/>
<path d="M29.8103 17.8875C29.003 22.4959 25.248 25.9794 20.3205 25.9794H17.1923C16.5543 25.9794 15.9114 26.5709 15.8095 27.225L14.4396 35.9317C14.3602 36.4275 14.1282 36.5922 13.6267 36.5922H8.59485C8.08605 36.5922 7.96567 36.4218 8.04191 35.9196L8.61973 29.8984L2.57996 29.5859C2.07196 29.5859 1.88818 29.3086 1.96041 28.8008L6.08135 2.63648C6.1608 2.14068 6.46897 1.92773 6.96894 1.92773H17.4202C22.4512 1.92773 25.634 5.31881 26.0232 9.71595C29.0166 11.7409 30.4162 14.4353 29.8111 17.8867L29.8103 17.8875Z" fill="#001C64"/>
<path d="M10.1484 20.1496L8.61797 29.8993L7.65013 36.0161C7.63215 36.134 7.63974 36.2545 7.6724 36.3692C7.70505 36.4839 7.76199 36.5903 7.83935 36.681C7.91671 36.7717 8.01267 36.8447 8.12072 36.895C8.22876 36.9453 8.34635 36.9717 8.46549 36.9724H13.7798C14.0223 36.9721 14.2569 36.8852 14.4412 36.7273C14.6255 36.5694 14.7475 36.3508 14.7853 36.1109L16.1841 27.2234C16.2221 26.9837 16.3442 26.7653 16.5285 26.6076C16.7128 26.4498 16.9472 26.3631 17.1897 26.3628H20.3179C22.7016 26.3597 25.0058 25.504 26.8151 23.9501C28.6244 22.3961 29.8197 20.2461 30.1857 17.8875C30.7274 14.4266 28.9884 11.2758 26.0118 9.71924C26.0051 10.088 25.9729 10.4558 25.9155 10.8201C25.5482 13.1774 24.3524 15.3259 22.5434 16.8787C20.7344 18.4315 18.4312 19.2865 16.0485 19.2898H11.1531C10.9108 19.2899 10.6765 19.3765 10.4924 19.5341C10.3082 19.6917 10.1862 19.91 10.1484 20.1496Z" fill="#0070E0"/>
<path d="M8.62029 29.8993H2.43205C2.31266 29.8987 2.1948 29.8724 2.08649 29.8221C1.97819 29.7718 1.882 29.6987 1.80446 29.6078C1.72693 29.5168 1.66987 29.4103 1.63719 29.2953C1.60451 29.1803 1.59697 29.0596 1.61508 28.9415L5.78498 2.46861C5.82247 2.22869 5.94429 2.01007 6.12851 1.85213C6.31273 1.69419 6.54722 1.60732 6.78974 1.60718H17.4151C22.4461 1.60718 26.104 5.27307 26.0181 9.71441C24.6791 9.02268 23.192 8.66773 21.6853 8.68021H12.8271C12.5845 8.68027 12.3499 8.76697 12.1654 8.92472C11.981 9.08247 11.8588 9.30094 11.8207 9.54084L10.1515 20.1496L8.62029 29.8993Z" fill="#003087"/>
</svg>
