<svg width="137" height="30" viewBox="0 0 137 30" fill="none" xmlns="http://www.w3.org/2000/svg">
<g clip-path="url(#clip0_651_1323)">
<path d="M59.2305 20.691H64.5358C64.7445 23.3805 66.4141 25.221 69.0259 25.221H71.0101C72.89 25.221 75.0602 23.961 75.0602 21.3525C75.0602 15.1665 59.6494 18.9945 59.6494 8.23503C59.6494 3.35103 63.7206 0.0825195 68.4618 0.0825195H70.57C75.3324 0.0825195 79.1753 2.93703 79.6547 8.40003H74.4129C74.0802 5.87553 72.7009 4.57202 70.446 4.57202H68.5253C66.7075 4.57202 64.9744 5.81402 64.9744 7.90352C64.9744 14.07 80.3852 9.84902 80.3852 21.105C80.3852 26.4435 76.2519 29.712 70.8634 29.712H68.7764C63.4711 29.712 59.5012 26.112 59.2305 20.691ZM82.0457 29.3805V0.37502H86.9533V16.137L94.5558 8.52302H100.756L92.8847 16.323L101.446 29.3805H95.7037L89.3549 20.028L86.9548 22.386V29.3805H82.0457ZM107.015 17.739V29.388H102.108V8.53203H107.016V11.4075C107.787 9.60752 109.292 8.53053 111.255 8.53053H113.949V12.6075H110.879C108.436 12.6075 107.016 15.318 107.016 17.7375L107.015 17.739ZM115.695 8.53203H120.603V29.388H115.695V8.53203ZM123.423 0.37502H128.308V29.3805H123.423V0.37502ZM130.925 0.37502H135.811V29.3805H130.926L130.925 0.37502ZM120.812 0.37502H115.506V5.50653H120.812V0.37502Z" fill="white"/>
<mask id="mask0_651_1323" style="mask-type:luminance" maskUnits="userSpaceOnUse" x="0" y="0" width="136" height="30">
<path d="M0 0H135.595V30H0V0Z" fill="white"/>
</mask>
<g mask="url(#mask0_651_1323)">
<path d="M45.5579 15.0119V15.0299C45.5579 15.1904 45.4929 15.3449 45.3764 15.4589L30.8125 29.9055C30.784 29.934 30.75 29.9568 30.7127 29.972C30.6754 29.9875 30.6353 29.9955 30.5947 29.9955H30.5025C30.4206 29.9955 30.3422 29.9633 30.2842 29.9058C30.2265 29.8485 30.194 29.7705 30.194 29.6895V15.0299C30.194 15.1904 30.1289 15.3449 30.014 15.4589L15.5394 29.817C15.4242 29.931 15.2681 29.9953 15.1053 29.9955H15.0902C14.9262 29.995 14.7691 29.9303 14.6531 29.8155L0.179969 15.4604C0.0653129 15.3465 0.000633058 15.1923 0 15.0314V15.0149C0 14.8529 0.0650309 14.6999 0.181481 14.5844L14.6546 0.224894C14.7122 0.167932 14.7807 0.122836 14.8559 0.0922011C14.9312 0.0615668 15.0118 0.0459991 15.0932 0.0463941H15.1083C15.2732 0.0463941 15.4274 0.110894 15.5424 0.226394L30.0185 14.5814C30.1335 14.6969 30.1985 14.8514 30.1985 15.0119V0.352395C30.1985 0.184394 30.3361 0.0463941 30.5055 0.0463941H30.5978C30.6794 0.0463941 30.7566 0.077894 30.8156 0.136394L45.381 14.5814C45.4959 14.6969 45.5624 14.8514 45.5624 15.0119H45.5579Z" fill="white"/>
</g>
</g>
<defs>
<clipPath id="clip0_651_1323">
<rect width="136.111" height="30" fill="white"/>
</clipPath>
</defs>
</svg>
