<svg width="72" height="72" viewBox="0 0 72 72" fill="none" xmlns="http://www.w3.org/2000/svg">
<path d="M41.1907 10.5299L46.4707 21.0899C47.1907 22.5599 49.1107 23.9699 50.7307 24.2399L60.3007 25.8299C66.4207 26.8499 67.8607 31.2899 63.4507 35.6699L56.0107 43.1099C54.7507 44.3699 54.0607 46.7999 54.4507 48.5399L56.5807 57.7499C58.2607 65.0399 54.3907 67.8599 47.9407 64.0499L38.9707 58.7399C37.3507 57.7799 34.6807 57.7799 33.0307 58.7399L24.0607 64.0499C17.6407 67.8599 13.7407 65.0099 15.4207 57.7499L17.5507 48.5399C17.9407 46.7999 17.2507 44.3699 15.9907 43.1099L8.5507 35.6699C4.1707 31.2899 5.5807 26.8499 11.7007 25.8299L21.2707 24.2399C22.8607 23.9699 24.7807 22.5599 25.5007 21.0899L30.7807 10.5299C33.6607 4.79992 38.3407 4.79992 41.1907 10.5299Z" stroke="#171717" stroke-width="4.5" stroke-linecap="round" stroke-linejoin="round"/>
</svg>
